<svg width="25" height="25" viewBox="0 0 25 25" fill="none" xmlns="http://www.w3.org/2000/svg">
<path fill-rule="evenodd" clip-rule="evenodd" d="M3.51685 10.4379C3.51685 5.83801 7.38453 2.12012 12.0629 2.12012C16.7544 2.12012 20.6221 5.83801 20.6221 10.4379C20.6221 12.7558 19.7739 14.9077 18.3778 16.7317C16.8376 18.7436 14.9393 20.4966 12.8025 21.8725C12.3135 22.1905 11.8721 22.2145 11.3354 21.8725C9.18647 20.4966 7.28814 18.7436 5.76116 16.7317C4.36404 14.9077 3.51685 12.7558 3.51685 10.4379ZM9.24633 10.6969C9.24633 12.2378 10.5115 13.4498 12.0629 13.4498C13.6152 13.4498 14.8926 12.2378 14.8926 10.6969C14.8926 9.16791 13.6152 7.89695 12.0629 7.89695C10.5115 7.89695 9.24633 9.16791 9.24633 10.6969Z" fill="white"/>
</svg>