<svg width="34" height="34" viewBox="0 0 34 34" fill="none" xmlns="http://www.w3.org/2000/svg">
<path fill-rule="evenodd" clip-rule="evenodd" d="M1 17C1 8.16344 8.16344 1 17 1C25.8366 1 33 8.16344 33 17C33 25.8366 25.8366 33 17 33C8.16344 33 1 25.8366 1 17Z" stroke="white"/>
<path fill-rule="evenodd" clip-rule="evenodd" d="M17.0008 8.46667C14.6833 8.46667 14.3924 8.47681 13.4822 8.51823C12.5737 8.55983 11.9536 8.70366 11.4111 8.91468C10.8498 9.13264 10.3737 9.4242 9.8994 9.89869C9.42473 10.373 9.13317 10.8491 8.9145 11.4102C8.70294 11.9529 8.55894 12.5732 8.51805 13.4813C8.47734 14.3915 8.46667 14.6826 8.46667 17.0001C8.46667 19.3176 8.47699 19.6076 8.51823 20.5178C8.56001 21.4263 8.70383 22.0464 8.91468 22.589C9.13282 23.1502 9.42437 23.6263 9.89887 24.1006C10.373 24.5753 10.8491 24.8676 11.41 25.0855C11.9529 25.2965 12.5732 25.4404 13.4815 25.482C14.3917 25.5234 14.6824 25.5335 16.9997 25.5335C19.3175 25.5335 19.6074 25.5234 20.5176 25.482C21.4261 25.4404 22.0469 25.2965 22.5898 25.0855C23.1509 24.8676 23.6263 24.5753 24.1004 24.1006C24.5751 23.6263 24.8667 23.1502 25.0853 22.5891C25.2951 22.0464 25.4391 21.4261 25.4818 20.518C25.5227 19.6078 25.5333 19.3176 25.5333 17.0001C25.5333 14.6826 25.5227 14.3917 25.4818 13.4815C25.4391 12.573 25.2951 11.9529 25.0853 11.4103C24.8667 10.8491 24.5751 10.373 24.1004 9.89869C23.6258 9.42402 23.1511 9.13246 22.5893 8.91468C22.0453 8.70366 21.4249 8.55983 20.5164 8.51823C19.6062 8.47681 19.3164 8.46667 16.9981 8.46667H17.0008ZM16.7163 10.0044H16.7164L17.0008 10.0045C19.2792 10.0045 19.5493 10.0126 20.449 10.0535C21.281 10.0916 21.7326 10.2306 22.0334 10.3474C22.4316 10.5021 22.7155 10.687 23.014 10.9856C23.3127 11.2843 23.4976 11.5688 23.6526 11.967C23.7694 12.2674 23.9086 12.719 23.9465 13.551C23.9874 14.4506 23.9963 14.7208 23.9963 16.9981C23.9963 19.2755 23.9874 19.5457 23.9465 20.4453C23.9084 21.2773 23.7694 21.7289 23.6526 22.0293C23.4979 22.4275 23.3127 22.7111 23.014 23.0096C22.7154 23.3083 22.4318 23.4931 22.0334 23.6478C21.7329 23.7651 21.281 23.9038 20.449 23.9419C19.5495 23.9827 19.2792 23.9916 17.0008 23.9916C14.7222 23.9916 14.4522 23.9827 13.5526 23.9419C12.7206 23.9035 12.269 23.7644 11.968 23.6476C11.5698 23.493 11.2854 23.3081 10.9867 23.0094C10.688 22.7107 10.5031 22.427 10.3481 22.0286C10.2313 21.7281 10.0921 21.2766 10.0542 20.4446C10.0134 19.545 10.0052 19.2748 10.0052 16.996C10.0052 14.7172 10.0134 14.4484 10.0542 13.5489C10.0923 12.7169 10.2313 12.2653 10.3481 11.9645C10.5028 11.5663 10.688 11.2818 10.9867 10.9831C11.2854 10.6845 11.5698 10.4996 11.968 10.3446C12.2688 10.2272 12.7206 10.0886 13.5526 10.0503C14.3398 10.0148 14.6449 10.0041 16.2353 10.0023V10.0045C16.3839 10.0042 16.5437 10.0043 16.7163 10.0044ZM20.5319 12.445C20.5319 11.8795 20.9905 11.4214 21.5559 11.4214V11.421C22.1212 11.421 22.5799 11.8797 22.5799 12.445C22.5799 13.0104 22.1212 13.469 21.5559 13.469C20.9905 13.469 20.5319 13.0104 20.5319 12.445ZM17.0006 12.6178C14.5806 12.6179 12.6185 14.58 12.6185 17.0001C12.6185 19.4202 14.5807 21.3815 17.0008 21.3815C19.4209 21.3815 21.3824 19.4202 21.3824 17.0001C21.3824 14.58 19.4207 12.6178 17.0006 12.6178ZM19.8453 17.0001C19.8453 15.4291 18.5717 14.1556 17.0008 14.1556C15.4298 14.1556 14.1563 15.4291 14.1563 17.0001C14.1563 18.571 15.4298 19.8446 17.0008 19.8446C18.5717 19.8446 19.8453 18.571 19.8453 17.0001Z" fill="white"/>
</svg>
