<svg width="121" height="61" viewBox="0 0 121 61" fill="none" xmlns="http://www.w3.org/2000/svg">
<g clip-path="url(#clip0_16_406)">
<path d="M0 34.9947C0.441355 32.6775 0.83367 30.6808 1.22598 28.6595C1.8635 25.3562 2.52553 22.0777 3.06496 18.7498C3.2366 17.6159 3.75151 17.3694 4.75682 17.394C12.7748 17.5173 20.7682 17.6159 28.7861 17.6899C31.5078 17.7145 33.9107 16.7778 35.6026 14.6332C36.8776 13.0062 37.8829 11.1327 38.8392 9.30859C39.7219 7.60768 40.3349 5.75887 41.2176 4.05797C42.7378 1.09988 46.0725 -0.527075 48.7452 0.557559C50.0202 1.07523 51.1726 2.18451 52.1044 3.26915C57.0819 9.03743 61.9368 14.855 66.8652 20.6726C67.0123 20.8452 67.2085 20.9931 67.5027 21.2396C68.0176 18.5773 68.5325 16.0629 69.0229 13.5239C69.5379 10.8123 69.8811 8.0514 71.5975 5.78352C73.7307 2.94868 76.526 1.09988 80.0813 1.12453C93.2484 1.14918 106.391 1.32173 119.558 1.44499C119.95 1.44499 120.367 1.44499 120.784 1.44499C120.269 6.42445 115.733 10.8616 110.78 11.0588C106.955 11.2067 103.105 11.0834 99.2557 11.0834C98.6918 11.0834 98.1278 11.0834 97.4658 11.0834C96.9754 13.6471 96.5095 16.1369 96.0436 18.6266C95.0383 23.9018 94.033 29.1771 93.0768 34.4524C92.9051 35.3891 92.5619 35.7589 91.5565 35.7096C89.0555 35.6356 86.579 35.6356 84.078 35.6603C83.0727 35.6849 82.8275 35.3891 83.0237 34.3538C84.4949 26.7613 85.9415 19.1442 87.3637 11.5272C87.3882 11.4039 87.3637 11.2806 87.3637 11.0095C84.4949 11.0095 81.6261 11.0095 78.5856 11.0095C77.85 14.9043 77.139 18.8484 76.3789 22.7926C75.8885 25.3809 75.4471 27.9692 74.8341 30.5083C74.074 33.7622 71.5975 35.8575 68.6797 35.9561C67.0614 36.0054 65.7618 35.3891 64.7075 34.1566C58.8718 27.4516 53.0606 20.7712 47.2249 14.0662C46.9552 13.7704 46.71 13.4253 46.3177 12.9323C45.4595 14.4852 44.6504 15.7917 44.0129 17.1722C41.5364 22.4968 37.0738 25.233 31.6059 25.7507C25.8192 26.3176 19.9345 26.0465 14.1233 26.1451C11.3036 26.1944 11.794 25.6028 11.2055 28.6101C10.8377 30.4097 10.5435 32.2338 10.1512 34.0333C10.0776 34.3784 9.66076 34.6989 9.342 34.8961C9.14585 35.0193 8.77805 34.9207 8.50833 34.9207C5.76213 34.9947 3.01592 34.9947 0 34.9947Z" fill="white"/>
<path d="M4.80591 11.182C5.49246 7.58302 6.12997 4.13191 6.84104 0.680805C6.89008 0.458948 7.62567 0.237091 8.01799 0.237091C15.1287 0.286393 22.2149 0.360345 29.3256 0.434297C31.3853 0.458948 33.4694 0.434297 35.7007 0.434297C34.7445 4.60028 33.4939 8.3472 29.6444 10.4179C28.6145 10.9848 27.315 11.3299 26.138 11.3299C19.2725 11.3792 12.4315 11.3053 5.56602 11.256C5.39438 11.2806 5.19822 11.2313 4.80591 11.182Z" fill="white"/>
<path d="M16.3055 51.2149C16.3055 54.0498 16.3055 56.8846 16.3055 59.7934C15.2022 59.7934 14.2459 59.7934 13.2161 59.7934C13.2161 55.2576 13.2161 50.7712 13.2161 46.1369C14.3195 46.1369 15.3738 46.0629 16.4036 46.1615C16.7469 46.1862 17.1392 46.5806 17.3599 46.9257C18.9046 49.3415 20.4003 51.7819 21.9206 54.1977C22.0432 54.3949 22.2148 54.5428 22.5581 54.9618C22.5581 51.8805 22.5581 49.0949 22.5581 46.2108C23.686 46.2108 24.6913 46.2108 25.7701 46.2108C25.7701 50.7219 25.7701 55.1837 25.7701 59.8427C24.6177 59.8427 23.4653 59.892 22.3129 59.7934C22.0186 59.7687 21.7244 59.3004 21.5037 58.9553C20.0816 56.712 18.684 54.4442 17.2618 52.2009C17.0411 51.8312 16.7714 51.4861 16.5507 51.1163C16.4772 51.1656 16.3791 51.1903 16.3055 51.2149Z" fill="white"/>
<path d="M86.4565 52.9405C86.4319 57.2051 83.2934 60.2125 78.8799 60.2125C74.5154 60.2125 71.3523 57.1065 71.3769 52.8665C71.4014 48.5526 74.4418 45.7424 79.027 45.7671C83.5386 45.8164 86.481 48.6512 86.4565 52.9405ZM78.9044 48.6759C76.4769 48.6759 74.8832 50.3768 74.8832 52.9651C74.9077 55.5042 76.526 57.2297 78.9289 57.2297C81.2583 57.2297 82.9747 55.4302 82.9747 52.9158C82.9992 50.4261 81.3073 48.6759 78.9044 48.6759Z" fill="white"/>
<path d="M50.5106 23.5321C49.8241 27.1557 49.1375 30.7794 48.4264 34.3784C48.3774 34.6003 48.0096 34.9207 47.8134 34.9207C44.2826 34.9454 40.7272 34.9454 37.1964 34.9454C37.368 26.5395 43.6696 22.7186 50.5106 23.5321Z" fill="white"/>
<path d="M53.3304 54.4688C52.4722 54.4195 51.663 54.3949 50.7803 54.3456C50.7803 53.4828 50.7803 52.694 50.7803 51.8312C52.6683 51.8312 54.4828 51.8312 56.4444 51.8312C56.4444 54.0744 56.4689 56.293 56.4199 58.4869C56.4199 58.7087 56.1992 59.0292 55.9785 59.1278C52.7664 60.6562 47.323 60.8287 44.724 57.1558C41.5364 52.6693 44.3071 46.408 49.775 45.841C52.0553 45.5945 54.2376 45.915 56.2482 47.4926C55.5862 48.2568 54.9732 48.9717 54.4583 49.5633C53.3304 49.2182 52.4231 48.7991 51.4914 48.6759C48.9904 48.4047 47.2004 49.8838 46.9552 52.4228C46.7346 54.7153 47.7154 56.9092 50.4861 57.3037C53.0607 57.6734 53.6001 57.1804 53.3304 54.4688Z" fill="white"/>
<path d="M62.3781 54.5428C62.3781 55.9232 62.3291 57.3283 62.4026 58.7088C62.4517 59.6455 62.1329 59.966 61.2257 59.892C60.5882 59.818 59.9261 59.8673 59.1906 59.8673C59.1906 55.2823 59.1906 50.7959 59.1906 46.2355C61.4218 46.2355 63.6041 46.0876 65.7863 46.2848C68.1402 46.482 69.4153 47.7145 69.685 49.6619C69.9547 51.5354 69.0965 52.9158 66.8162 53.9758C67.9686 55.8493 69.0965 57.7227 70.3961 59.8427C69.072 59.8427 67.9686 59.8674 66.8652 59.818C66.6691 59.818 66.4484 59.4729 66.3258 59.2511C65.5412 57.8953 64.8301 56.5148 64.0209 55.2084C63.7512 54.7893 63.2118 54.5428 62.8195 54.2223C62.6478 54.2963 62.5007 54.4195 62.3781 54.5428ZM62.4517 48.7745C62.4517 49.9084 62.4517 50.8945 62.4517 52.0777C63.4079 51.9791 64.2907 51.9051 65.1488 51.7819C66.0561 51.6586 66.4974 51.067 66.4484 50.1796C66.3993 49.2182 65.6638 48.8731 64.8791 48.7991C64.0945 48.7252 63.3344 48.7745 62.4517 48.7745Z" fill="white"/>
<path d="M100.359 46.1862C100.359 49.3415 100.555 52.3981 100.31 55.4055C100.016 58.9799 96.7057 60.5822 93.4936 60.1138C90.0363 59.6208 88.4916 57.6488 88.467 54.1237C88.467 51.5107 88.467 48.8977 88.467 46.1862C89.5949 46.1862 90.5757 46.1862 91.7282 46.1862C91.7527 46.6052 91.7772 47.0489 91.7772 47.468C91.7772 49.8591 91.7527 52.2256 91.8017 54.6167C91.8262 56.3669 92.7089 57.2297 94.3518 57.2297C96.0191 57.2297 96.9509 56.4409 96.9999 54.7153C97.0735 52.3735 97.0489 50.0317 97.0489 47.6899C97.0489 47.1968 97.0489 46.7285 97.0489 46.1615C98.2259 46.1861 99.2312 46.1862 100.359 46.1862Z" fill="white"/>
<path d="M3.97218 59.8181C2.74619 59.8181 1.76541 59.8181 0.71106 59.8181C0.71106 55.2823 0.71106 50.7959 0.71106 46.0136C3.16303 46.1369 5.615 46.1122 7.99341 46.4327C10.0531 46.7038 11.1074 48.1582 11.1565 50.081C11.23 52.1763 10.2737 53.6554 8.21409 54.2223C6.89002 54.5921 5.4924 54.6414 3.94766 54.8386C3.97218 56.3916 3.97218 58.0432 3.97218 59.8181ZM3.9967 52.1024C5.00201 52.0038 5.95827 52.0777 6.74291 51.7819C7.25782 51.5847 7.87081 50.7959 7.84629 50.3028C7.82177 49.7852 7.18426 49.0457 6.64483 48.8978C5.83568 48.6512 4.90393 48.8238 3.9967 48.8238C3.9967 49.9084 3.9967 50.8698 3.9967 52.1024Z" fill="white"/>
<path d="M106.317 54.7893C106.317 56.3916 106.317 58.0185 106.317 59.7441C105.214 59.7441 104.233 59.7441 103.13 59.7441C103.13 55.2577 103.13 50.7712 103.13 46.0136C105.508 46.1122 107.887 46.0629 110.192 46.3834C112.325 46.6545 113.502 48.1582 113.575 50.1549C113.649 52.1024 112.447 53.7786 110.388 54.2716C109.113 54.5921 107.764 54.6167 106.317 54.7893ZM106.366 48.7745C106.366 49.9084 106.366 50.9191 106.366 52.0777C107.274 52.0037 108.132 52.0284 108.941 51.8805C109.873 51.7326 110.29 51.0917 110.241 50.1303C110.167 49.1936 109.48 48.8978 108.745 48.7992C107.985 48.7005 107.225 48.7745 106.366 48.7745Z" fill="white"/>
<path d="M38.3488 46.2108C38.3488 47.0982 38.3488 47.8871 38.3488 48.8484C37.6622 48.8484 37.0247 48.8484 36.4117 48.8484C35.8232 48.8484 35.2103 48.8484 34.4992 48.8484C34.4992 52.5707 34.4992 56.1204 34.4992 59.7687C33.3958 59.7687 32.3905 59.7687 31.2626 59.7687C31.2381 59.3497 31.189 58.906 31.189 58.4622C31.189 55.7014 31.14 52.9651 31.2135 50.2042C31.2381 49.1443 30.9929 48.6759 29.865 48.7991C29.0313 48.8977 28.1731 48.8238 27.2659 48.8238C27.2659 47.8871 27.2659 47.0736 27.2659 46.1862C30.9438 46.2108 34.5973 46.2108 38.3488 46.2108Z" fill="white"/>
</g>
<defs>
<clipPath id="clip0_16_406">
<rect width="120.759" height="60" fill="white" transform="translate(0 0.212463)"/>
</clipPath>
</defs>
</svg>
