<svg width="25" height="25" viewBox="0 0 25 25" fill="none" xmlns="http://www.w3.org/2000/svg">
<path fill-rule="evenodd" clip-rule="evenodd" d="M3.52148 10.5475C3.52148 5.94763 7.38917 2.22974 12.0675 2.22974C16.7591 2.22974 20.6267 5.94763 20.6267 10.5475C20.6267 12.8654 19.7785 15.0174 18.3824 16.8413C16.8423 18.8533 14.9439 20.6062 12.8072 21.9822C12.3181 22.3002 11.8768 22.3242 11.34 21.9822C9.19111 20.6062 7.29278 18.8533 5.7658 16.8413C4.36868 15.0174 3.52148 12.8654 3.52148 10.5475ZM9.25097 10.8065C9.25097 12.3474 10.5162 13.5594 12.0675 13.5594C13.6199 13.5594 14.8973 12.3474 14.8973 10.8065C14.8973 9.27753 13.6199 8.00657 12.0675 8.00657C10.5162 8.00657 9.25097 9.27753 9.25097 10.8065Z" fill="black"/>
</svg>
